<svg width="229" height="80" viewBox="0 0 229 80" fill="none" xmlns="http://www.w3.org/2000/svg">
<rect width="80" height="80" fill="#BDE162"/>
<path d="M34.2048 60.8391H21.6531C20.3581 60.8391 19.5612 59.4444 20.2585 58.249L44.7642 19H57.3159C58.611 19 59.4079 20.3946 58.7106 21.59L34.2048 60.8391Z" fill="#171D2F"/>
<path d="M56.7183 60.839H46.0593L56.5191 44.1033C57.316 42.9079 59.1091 43.406 59.1091 44.8007V58.4482C59.1091 59.7432 58.0133 60.839 56.7183 60.839Z" fill="#171D2F"/>
<path d="M22.4501 19H33.1091L22.6494 35.7356C21.8524 36.931 20.0593 36.433 20.0593 35.0383V21.3908C20.0593 20.0958 21.1551 19 22.4501 19Z" fill="#171D2F"/>
<path d="M104 51.7443V48.0373L109.483 31.6751H104.779V28.2557H113.279V31.6751L107.699 48.3249H113.279V51.7443H104Z" fill="white"/>
<path d="M115.076 51.7443V28.2557H123.09V31.8029H118.58V38.1305H121.824V41.5819H118.58V48.1971H123.09V51.7443H115.076Z" fill="white"/>
<path d="M125.023 51.7443L128.625 28.2557H132.907L136.508 51.7443H133.102L132.453 46.9507H129.079L128.43 51.7443H125.023ZM129.565 43.3076H131.966L130.96 35.4141L130.863 34.1678H130.668L130.571 35.4141L129.565 43.3076Z" fill="white"/>
<path d="M138.363 51.7443V28.2557H141.867V48.5486H146.506V51.7443H138.363Z" fill="white"/>
<path d="M157.447 52C156.452 52 155.603 51.7816 154.9 51.3449C154.208 50.8975 153.678 50.2903 153.31 49.5233C152.953 48.7563 152.775 47.8881 152.775 46.9188V33.0812C152.775 32.1225 152.959 31.2597 153.326 30.4927C153.705 29.7257 154.246 29.1185 154.949 28.6711C155.652 28.2237 156.484 28 157.447 28C158.171 28 158.82 28.1332 159.393 28.3995C159.966 28.6658 160.453 29.0333 160.853 29.502C161.264 29.9601 161.578 30.498 161.794 31.1158C162.01 31.723 162.119 32.3782 162.119 33.0812V36.3089H158.842V33.0812C158.842 32.5912 158.739 32.1811 158.534 31.8509C158.328 31.5206 157.987 31.3555 157.512 31.3555C157.079 31.3555 156.765 31.526 156.571 31.8668C156.376 32.2077 156.279 32.6125 156.279 33.0812V46.9188C156.279 47.3875 156.382 47.7923 156.587 48.1332C156.803 48.474 157.111 48.6445 157.512 48.6445C157.998 48.6445 158.339 48.4794 158.534 48.1491C158.739 47.8189 158.842 47.4088 158.842 46.9188V43.6911H162.119V46.9188C162.119 47.8775 161.929 48.7403 161.551 49.5073C161.172 50.2743 160.632 50.8815 159.929 51.3289C159.237 51.7763 158.409 52 157.447 52Z" fill="white"/>
<path d="M169.074 52C168.101 52 167.263 51.7763 166.56 51.3289C165.868 50.8815 165.333 50.2743 164.954 49.5073C164.586 48.7403 164.402 47.8775 164.402 46.9188V33.0812C164.402 32.1119 164.586 31.249 164.954 30.4927C165.333 29.7257 165.868 29.1185 166.56 28.6711C167.263 28.2237 168.101 28 169.074 28C170.048 28 170.88 28.2237 171.572 28.6711C172.275 29.1185 172.811 29.7257 173.178 30.4927C173.557 31.2597 173.746 32.1225 173.746 33.0812V46.9188C173.746 47.8775 173.557 48.7403 173.178 49.5073C172.811 50.2743 172.275 50.8815 171.572 51.3289C170.88 51.7763 170.048 52 169.074 52ZM169.074 48.6445C169.507 48.6445 169.81 48.4687 169.983 48.1172C170.156 47.755 170.242 47.3555 170.242 46.9188V33.0812C170.242 32.6445 170.15 32.2503 169.966 31.8988C169.783 31.5366 169.485 31.3555 169.074 31.3555C168.674 31.3555 168.377 31.5366 168.182 31.8988C167.998 32.2503 167.906 32.6445 167.906 33.0812V46.9188C167.906 47.3555 167.998 47.755 168.182 48.1172C168.366 48.4687 168.663 48.6445 169.074 48.6445Z" fill="white"/>
<path d="M176.192 51.7443V28.2557H179.469L182.713 40.4953L183.005 41.5819H183.2V28.2557H186.412V51.7443H183.46L179.891 39.5047L179.599 38.4181H179.404V51.7443H176.192Z" fill="white"/>
<path d="M193.21 52C192.247 52 191.447 51.8455 190.809 51.5366C190.171 51.217 189.668 50.759 189.3 50.1625C188.933 49.5659 188.668 48.8469 188.505 48.0053C188.354 47.1638 188.278 46.2157 188.278 45.1611L191.717 44.8415C191.717 45.3529 191.734 45.8482 191.766 46.3276C191.809 46.7963 191.88 47.2224 191.977 47.6059C192.085 47.9787 192.236 48.277 192.431 48.5007C192.637 48.7244 192.896 48.8362 193.21 48.8362C193.729 48.8362 194.096 48.6019 194.313 48.1332C194.529 47.6538 194.637 47.0786 194.637 46.4075C194.637 45.7364 194.459 45.0386 194.102 44.3142C193.745 43.5899 193.318 42.9028 192.82 42.253C191.977 41.1451 191.236 40.1172 190.598 39.1691C189.971 38.221 189.479 37.2889 189.122 36.3728C188.776 35.4567 188.603 34.498 188.603 33.4967C188.603 32.7084 188.705 31.984 188.911 31.3236C189.116 30.6525 189.414 30.0719 189.803 29.5819C190.203 29.0812 190.685 28.6924 191.247 28.4154C191.809 28.1385 192.453 28 193.177 28C194.075 28 194.832 28.1491 195.448 28.4474C196.075 28.7457 196.578 29.1718 196.957 29.7257C197.346 30.2796 197.627 30.9401 197.8 31.7071C197.984 32.4634 198.076 33.3049 198.076 34.2317L194.637 34.5513C194.637 34.1571 194.616 33.763 194.572 33.3688C194.54 32.964 194.475 32.5965 194.378 32.2663C194.28 31.9361 194.14 31.6698 193.956 31.4674C193.772 31.265 193.534 31.1638 193.242 31.1638C192.788 31.1638 192.474 31.3555 192.301 31.739C192.128 32.1119 192.042 32.6445 192.042 33.3369C192.042 34.2317 192.285 35.0945 192.772 35.9254C193.258 36.7563 193.913 37.7257 194.734 38.8336C195.719 40.1438 196.519 41.3475 197.135 42.4447C197.763 43.5419 198.076 44.7563 198.076 46.0879C198.076 46.9294 197.984 47.7124 197.8 48.4368C197.617 49.1505 197.325 49.7736 196.924 50.3063C196.535 50.8389 196.032 51.2543 195.416 51.5526C194.81 51.8509 194.075 52 193.21 52Z" fill="white"/>
<path d="M204.626 52C203.642 52 202.798 51.7763 202.096 51.3289C201.403 50.8815 200.874 50.2743 200.506 49.5073C200.138 48.7403 199.954 47.8775 199.954 46.9188V28.2557H203.458V46.9188C203.458 47.3768 203.55 47.7816 203.734 48.1332C203.918 48.474 204.215 48.6445 204.626 48.6445C205.059 48.6445 205.361 48.474 205.535 48.1332C205.708 47.7816 205.794 47.3768 205.794 46.9188V28.2557H209.298V46.9188C209.298 47.8775 209.109 48.7403 208.73 49.5073C208.362 50.2743 207.827 50.8815 207.124 51.3289C206.432 51.7763 205.599 52 204.626 52Z" fill="white"/>
<path d="M211.899 51.7443V28.2557H215.403V48.5486H220.042V51.7443H211.899Z" fill="white"/>
<path d="M222.187 51.7443V31.8029H218.878V28.2557H229V31.8029H225.691V51.7443H222.187Z" fill="white"/>
</svg>
